<?xml version="1.0" encoding="utf-8" standalone="no"?>
<svg version="1.1" viewBox="0 0 64 64" xmlns="http://www.w3.org/2000/svg">
  <rect style="opacity:0;fill:#ffffff" width="64" height="64"/>
  <circle style="opacity:0.2;fill:none;stroke:#ffffff;stroke-width:2" cx="32" cy="32" r="24"/>
  <path style="fill:#ffffff" d="M 28.44,43 C 27.84,43 27.27,42.66 26.89,42.1 L 19.1,30.82 c -0.19,-0.28 0.04,-0.93 0.33,-1.12 0.28,-0.19 0.97,-0.2 1.16,0.08 L 27.91,40.63 c 0.16,0.23 0.35,0.37 0.55,0.37 0.28,0 0.41,-0.27 0.56,-0.36 L 43.45,21.04 c 0.2,-0.27 0.9,-0.31 1.18,-0.11 0.28,0.19 0.45,0.76 0.25,1.03 l -14.86,20.19 C 29.58,42.66 29.02,43 28.44,43 z"/>
</svg>
