<?xml version="1.0" encoding="utf-8" standalone="no"?>
<svg version="1.1" viewBox="0 0 32 32" xmlns="http://www.w3.org/2000/svg">
  <rect style="fill:none;opacity:0" width="32" height="32"/>
  <path style="fill:#7086ff;stroke:#ffffff;stroke-width:1;stroke-linejoin:miter" d="m 31.5,15.97 c 0,8.58 -6.91,15.53 -15.5,15.53 -8.57,0 -15.5,-6.92 -15.5,-15.5 0,-8.58 7,-15.5 15.58,-15.5 H 31 c 0.49,0 0.5,0 0.5,0.5 z"/>
  <g style="fill:#ffffff">
    <circle cx="16" cy="8.7" r="2.35"/>
    <path d="m 13.98,15.46 c 0,-0.77 0.58,-1.39 1.34,-1.39 h 1.42 c 0.77,0 1.37,0.63 1.34,1.39 -0.03,3.24 -0.33,6.48 -0.56,9.71 -0.05,0.77 -0.71,1.39 -1.46,1.39 -0.75,0 -1.41,-0.63 -1.46,-1.39 -0.22,-3.23 -0.62,-6.47 -0.62,-9.71 z"/>
  </g>
</svg>
