<?xml version="1.0" encoding="utf-8" standalone="no"?>
<svg version="1.1" viewBox="0 0 32 28" xmlns="http://www.w3.org/2000/svg">
  <defs>
    <linearGradient id="gradient" x1="0" y1="28" x2="22" y2="9" gradientUnits="userSpaceOnUse">
      <stop offset="0" style="stop-color:#ad332e;stop-opacity:1"/>
      <stop offset="1" style="stop-color:#cd4641;stop-opacity:1"/>
    </linearGradient>
  </defs>
  <rect style="fill:none;opacity:0" width="32" height="28"/>
  <path style="fill:url(#gradient)" d="M 1.76,28 C 0.19,28 -0.45,26.9 0.33,25.55 L 14.58,1.01 c 0.78,-1.35 2.06,-1.35 2.85,0 l 14.24,24.53 c 0.78,1.35 0.14,2.45 -1.42,2.45 z"/>
  <g style="fill:#fff9c4">
    <path d="m 14.16,9.44 -0.03,-0.91 c -0.03,-0.7 0.53,-1.27 1.23,-1.27 h 1.29 c 0.7,0 1.25,0.57 1.23,1.27 l -0.03,0.91 -0.51,7.95 c -0.05,0.7 -0.65,1.27 -1.33,1.27 -0.69,0 -1.28,-0.57 -1.33,-1.27 0,0 -0.48,-7.89 -0.51,-7.95 z"/>
    <circle cx="16" cy="22.93" r="2.13"/>
  </g>
</svg>
