<?xml version="1.0" encoding="utf-8" standalone="no"?>
<svg version="1.1" viewBox="0 0 86 86" xmlns="http://www.w3.org/2000/svg">
  <defs>
    <linearGradient id="gradient" x1="12.5" y1="73.5" x2="73.5" y2="12.5" gradientUnits="userSpaceOnUse">
      <stop offset="0" style="stop-color:#f8bc56;stop-opacity:1"/>
      <stop offset="1" style="stop-color:#fed96d;stop-opacity:1"/>
    </linearGradient>
  </defs>
  <rect style="opacity:0;fill:#ffffff" width="86" height="86"/>
  <circle style="fill:url(#gradient)" cx="43" cy="43" r="43"/>
  <g style="opacity:0.8;fill:#000000">
    <path d="m 50.23,17.09 c -0.26,0 -0.53,-0.07 -0.77,-0.23 C 47.25,15.59 46,14.93 43,14.93 c -3,0 -5.15,0.77 -7.17,1.95 -0.56,0.32 -1.25,0.25 -1.66,-0.16 -0.2,-0.2 -0.26,-0.45 -0.26,-0.71 0,-0.26 0.24,-0.5 0.5,-0.66 2.58,-1.49 5.58,-2.35 8.58,-2.35 3,0 5.57,0.86 7.9,2.34 0.29,0.19 0.5,0.5 0.5,0.7 0,0.26 -0.06,0.47 -0.25,0.67 C 50.88,17.01 50.53,17.09 50.23,17.09 z"/>
    <path d="m 47.64,19.94 c -1.6,-0.88 -2.69,-1.35 -4.64,-1.35 -2.05,0.14 -3.82,0.51 -5.36,1.36 -0.5,0.28 -1.12,0.22 -1.49,-0.15 -0.2,-0.2 -0.26,-0.43 -0.26,-0.69 0,-0.27 0.22,-0.48 0.49,-0.64 2.35,-1.36 4.76,-1.7 6.61,-1.7 2,0 4.16,0.62 5.94,1.71 0.28,0.17 0.48,0.43 0.48,0.67 0,0.31 -0.06,0.47 -0.25,0.66 -0.22,0.22 -0.53,0.34 -0.84,0.33 -0.24,0 -0.52,-0.09 -0.69,-0.19 z"/>
    <path d="m 49.47,33.5 h 9.2 L 43.36,69 l -9.7,0 4.43,-9.84 L 27.32,33.5 h 9.39 l 6.56,16.57 z"/>
    <path d="m 47.2,23.38 c -0.51,0.3 -0.94,0.27 -1.34,0.07 -1.1,-0.63 -1.71,-0.91 -2.86,-0.91 -1.49,0.03 -2.55,0.37 -3.68,1 -0.34,0.17 -0.92,0.06 -1.33,-0.36 -0.15,-0.15 -0.28,-0.42 -0.28,-0.64 0,-0.28 0.17,-0.54 0.43,-0.71 1.47,-1 3.14,-1.35 4.86,-1.35 1.69,0 3.03,0.62 4.1,1.29 0.17,0.12 0.5,0.43 0.51,0.74 C 47.62,22.9 47.41,23.26 47.2,23.38 z"/>
  </g>
</svg>
