<?xml version="1.0" encoding="utf-8" standalone="no"?>
<svg version="1.1" viewBox="0 0 86 86" xmlns="http://www.w3.org/2000/svg">
  <rect style="opacity:0;fill:#ffffff" width="86" height="86"/>
  <path style="fill:#ffffff" d="M 43 0 A 43 43 0 0 0 0 43 A 43 43 0 0 0 43 86 A 43 43 0 0 0 86 43 A 43 43 0 0 0 43 0 z M 43 13 C 46 13 48.56 13.86 50.89 15.34 C 51.18 15.53 51.39 15.84 51.39 16.04 C 51.39 16.3 51.33 16.51 51.14 16.71 C 50.88 17 50.53 17.09 50.23 17.09 C 49.97 17.09 49.7 17.02 49.46 16.86 C 47.25 15.59 46 14.93 43 14.93 C 40 14.93 37.85 15.7 35.83 16.88 C 35.27 17.2 34.58 17.13 34.17 16.72 C 33.97 16.52 33.91 16.27 33.91 16 C 33.91 15.75 34.15 15.51 34.41 15.35 C 37 13.86 40 13 43 13 z M 43 16.77 C 45 16.77 47.15 17.39 48.93 18.48 C 49.21 18.65 49.41 18.91 49.41 19.15 C 49.41 19.46 49.35 19.62 49.16 19.81 C 48.94 20.03 48.63 20.15 48.32 20.14 C 48.08 20.14 47.8 20.05 47.63 19.95 L 47.64 19.94 C 46.04 19.06 44.95 18.59 43 18.59 C 40.95 18.73 39.18 19.1 37.64 19.95 C 37.14 20.23 36.52 20.17 36.15 19.8 C 35.95 19.6 35.89 19.37 35.89 19.11 C 35.89 18.84 36.11 18.63 36.38 18.47 C 38.73 17.11 41.14 16.77 43 16.77 z M 43 20.48 C 44.69 20.48 46.03 21.1 47.1 21.77 C 47.27 21.89 47.6 22.2 47.61 22.51 C 47.62 22.9 47.41 23.26 47.2 23.38 C 46.69 23.68 46.26 23.65 45.86 23.45 C 44.76 22.82 44.15 22.54 43 22.54 C 41.51 22.57 40.45 22.91 39.32 23.54 C 38.98 23.71 38.4 23.6 38 23.18 C 37.84 23.03 37.71 22.76 37.71 22.54 C 37.71 22.26 37.88 22 38.14 21.83 C 39.61 20.83 41.28 20.48 43 20.48 z M 27.32 33.5 L 36.71 33.5 L 43.27 50.07 L 49.47 33.5 L 58.67 33.5 L 43.36 69 L 33.66 69 L 38.09 59.16 L 27.32 33.5 z"/>
</svg>
