<?xml version="1.0" encoding="utf-8" standalone="no"?>
<svg version="1.1" viewBox="0 0 48 120" xmlns="http://www.w3.org/2000/svg">
  <rect style="opacity:0;fill:#ffffff" width="48" height="120"/>
  <path style="fill:#ffffff" d="m 48,80.8 c 0,4.44 -3.58,8 -8,8 h -0.48 v 27.18 c 0,2.22 -1.79,4 -4,4 H 12.47 c -2.21,0 -4,-1.8 -4,-4 V 88.8 H 8 c -4.42,0 -8,-3.56 -8,-8 V 8 C 0,3.56 3.58,0 8,0 h 32 c 4.42,0 8,3.56 8,8 z M 36.71,50.55 c 0,-7.04 -5.7,-12.7 -12.71,-12.7 -7,0 -12.69,5.68 -12.69,12.73 0,7 5.68,12.73 12.69,12.73 7,0 12.71,-5.74 12.71,-12.73 z M 17.89,117.2 V 95.4 h -4.71 v 21.8 z M 30.12,13.7 c 0,-3.39 -2.74,-6.14 -6.12,-6.14 -3.38,0 -6.12,2.75 -6.12,6.14 0,3.39 2.74,6.14 6.12,6.14 3.38,0 6.12,-2.75 6.12,-6.14 z M 23.53,114.3 V 95.4 h -4.71 v 18.9 z m 5.65,0 V 95.4 h -4.71 v 18.9 z m 5.65,2.9 V 95.4 h -4.71 v 21.8 z"/>
</svg>
