<?xml version="1.0" encoding="UTF-8" standalone="no"?>
<svg
   xmlns:svg="http://www.w3.org/2000/svg"
   xmlns="http://www.w3.org/2000/svg"
   xmlns:sodipodi="http://sodipodi.sourceforge.net/DTD/sodipodi-0.dtd"
   xmlns:inkscape="http://www.inkscape.org/namespaces/inkscape"
   width="48"
   height="120"
   viewBox="0 0 48 120"
   version="1.1"
   sodipodi:docname="yubikey-vertical.svg">
  <rect
      style="opacity:1;fill:#ecc579;fill-opacity:1;stroke:none"
      width="24"
      height="24"
      x="12"
      y="94"/>
  <circle
      style="opacity:1;fill:none;fill-opacity:1;stroke:#ecc579;stroke-width:3.2;stroke-opacity:1"
      cx="24"
      cy="13.7"
      inkscape:transform-center-x="-40"
      inkscape:transform-center-y="-0.287"
      r="6.4"/>
  <circle
      style="opacity:1;fill:#ecc579;fill-opacity:1;stroke:none"
      cx="24"
      cy="50.6"
      r="14"/>
  <g
      transform="matrix(2,0,0,2.0078738,-1.76448,-0.23622173)"
      style="fill:none;fill-rule:evenodd;stroke:none;stroke-width:1">
    <g
        transform="translate(-237,-798)"
        style="fill:#000000;fill-rule:nonzero">
      <path
          d="m 260.23529,816 c 2.20914,0 4,1.79086 4,4 l 2.1e-4,0.23869 c 0.0389,-0.002 0.078,-0.003 0.11744,-0.003 h 13.41177 c 1.10457,0 2,0.89543 2,2 v 11.52942 c 0,1.10457 -0.89543,2 -2,2 h -13.41177 l -0.11794,-0.005 2.9e-4,0.24 c 0,2.20914 -1.79086,4 -4,4 H 224 c -2.20914,0 -4,-1.79086 -4,-4 v -16 c 0,-2.20914 1.79086,-4 4,-4 z m -15.05882,5.64706 c -3.50863,0 -6.35294,2.84431 -6.35294,6.35294 0,3.50863 2.84431,6.35294 6.35294,6.35294 3.50863,0 6.35294,-2.84431 6.35294,-6.35294 0,-3.50863 -2.84431,-6.35294 -6.35294,-6.35294 z m 33.17647,9.41176 h -10.82353 v 2.35294 h 10.82353 z m -51.52941,-6.11764 c -1.68934,0 -3.05882,1.36948 -3.05882,3.05882 0,1.68934 1.36948,3.05882 3.05882,3.05882 1.68934,0 3.05882,-1.36948 3.05882,-3.05882 0,-1.68934 -1.36948,-3.05882 -3.05882,-3.05882 z m 50.11765,3.29411 h -9.41177 v 2.35295 h 9.41177 z m 0,-2.82353 h -9.41177 v 2.35295 h 9.41177 z m 1.41176,-2.82352 h -10.82353 v 2.35294 h 10.82353 z"
          transform="rotate(90,249.88235,828)"
          inkscape:connector-curvature="0"
          sodipodi:nodetypes="sccssssscccssssssssssscccccsssssccccccccccccccc" />
    </g>
  </g>
  <g
      transform="matrix(0.16057232,0,0,0.16057232,24.468219,24.591924)"
      style="opacity:0.8">
    <path
        d="m 7.1642958,137.33954 14.3262002,-0.0234 -23.8419002,55.2951 -15.1118998,0.0252 6.8976,-15.3261 -16.7553,-39.915 14.6259,-0.0243 10.2104998,25.7913 z"
        style="fill:#000000"
        inkscape:connector-curvature="0"/>
    <path
        style="fill:#000000"
        inkscape:connector-curvature="0"
        d="m 4.2531558,120.26555 c -0.008,1.4031 -1.3365,2.178 -2.4597,1.5984 -1.13670004,-0.5868 -2.23110004,-1.2285 -3.5523,-1.431 -2.0817,-0.3195 -4.059,-0.1143 -5.9076,0.8811 -0.3285,0.1773 -0.6453,0.3744 -0.981,0.5391 -0.8289,0.4086 -1.7612998,0.1737 -2.2490998,-0.5535 -0.4626,-0.6885 -0.3033,-1.6173 0.4176,-2.1015 2.5118998,-1.6857 5.3234998,-2.3337 8.3933998,-2.043 2.03399996,0.1935 3.8691,0.8793 5.5503,1.9512 0.522,0.3339 0.7731,0.7848 0.7884,1.1592"/>
    <path
        style="fill:#000000"
        inkscape:connector-curvature="0"
        d="m 8.3457258,111.81311 c -0.4122,0 -0.8325,-0.1152 -1.1997,-0.3528 -2.3913,-1.5408 -5.0517,-2.4993 -7.90830004,-2.8467 -4.68539996,-0.5697 -8.96399996,0.2745 -12.71429976,2.5101 -0.0774,0.0468 -0.1539,0.0936 -0.2304,0.1404 -0.1224,0.0747 -0.2484,0.1521 -0.3762,0.225 -0.8658,0.4977 -1.953,0.3933 -2.5839,-0.2484 -0.3159,-0.3195 -0.4563,-0.7137 -0.3978,-1.1079 0.0621,-0.4176 0.342,-0.7812 0.7893,-1.0233 l 0.3699,-0.2025 c 1.2564,-0.684 2.5551,-1.3914 3.9339,-1.9368 2.6630998,-1.0521 5.5430998,-1.5219 9.3356998,-1.5219 h 0.0162 0.002 c 4.1112,0.0405 8.3736,1.3374 12.0015,3.6504 0.4545,0.2898 0.7317002,0.6777 0.7812002,1.0926 0.0441,0.3699 -0.0891,0.729 -0.3870002,1.0386 -0.369,0.3843 -0.8928,0.5832 -1.4319,0.5832"/>
    <path
        style="fill:#000000"
        inkscape:connector-curvature="0"
        d="m 5.3794158,116.55224 c -0.3681,0 -0.7425,-0.0981 -1.0683,-0.2988 -1.7496,-1.0755 -3.69630004,-1.7442 -5.787,-1.9863 -3.438,-0.3987 -6.5736,0.1908 -9.3194998,1.7523 -0.0567,0.0324 -0.1134,0.0648 -0.1701,0.0981 -0.0936,0.0549 -0.1899,0.1107 -0.288,0.1647 -0.7857,0.4302 -1.7424,0.3357 -2.3256,-0.2304 -0.3105,-0.3006 -0.4554,-0.6948 -0.3987,-1.0809 0.0603,-0.4131 0.3339,-0.765 0.7704,-0.9909 l 0.2772,-0.144 c 0.9486,-0.4932 1.9305,-1.0035 2.9816998,-1.3995 2.0331,-0.7668 4.2264,-1.1088 7.1073,-1.1088 h 0.0126 0.005 c 3.13649996,0.0297 6.3882,0.9729 9.1557,2.6559 0.4329,0.2628 0.6975,0.6318 0.7461,1.0368 0.0432,0.3663 -0.0954,0.7281 -0.3888,1.0206 -0.3393,0.3375 -0.819,0.5112 -1.3095,0.5112"/>
  </g>
</svg>
