<?xml version="1.0" encoding="utf-8" standalone="no"?>
<svg version="1.1" viewBox="0 0 128 128" xmlns="http://www.w3.org/2000/svg">
  <g style="fill:#ffffff">
    <rect style="opacity:0" width="128" height="128"/>
    <path style="opacity:0.6" d="M 13.6,33.26 V 21.03 c 0.03,-4.4 1.5,-8.36 4.38,-11.79 4.09,-4.87 9.46,-7.72 15.88,-8.82 6.07,-1.04 11.86,-0.07 17.32,2.52 4.78,2.29 8.58,5.59 11,10.21 1.28,2.45 1.92,5.04 1.92,7.78 V 33.26 H 67 c 5.06,0 9.44,5 9.44,9.47 V 57.61 C 60.1,65 51.49,77.16 50.7,94.43 L 10.46,94.39 C 5.07,94.33 1.02,91.47 0.15,85.94 0.08,85.42 0.02,84.9 0.02,84.36 L 0.03,43.73 C 0.05,38.54 2.94,33.26 8.47,33.26 Z m 40.93,0 -0.39,-11.13 C 53.8,18.14 51.95,14.74 48.83,12.03 44.13,7.96 37.46,6.96 32.07,9.68 c -5.9,3 -8.62,7.97 -8.98,14.14 l -0.03,9.44 z M 43.8,62.35 c 0,-0.45 0.1,-0.75 0.48,-1.04 1.89,-1.4 2.91,-3.27 3.22,-5.53 0.76,-5.47 -4.79,-10.27 -10.44,-8.91 -3.48,0.84 -5.74,2.98 -6.47,6.3 -0.73,3.32 0.4,6.13 3.23,8.24 0.38,0.28 0.5,0.56 0.5,1 v 13.14 h 9.48 z"/>
    <path d="m 92.36,60.25 c 19.85,0.17 35.64,15.13 35.64,33.9 0,18.89 -15.94,33.9 -35.73,33.85 C 72.39,127.96 56.62,112.85 56.65,94.09 56.7,75.24 72.58,60.38 92.36,60.25 Z m -10,55.21 9.52,0 c 0.58,0 0.82,-0.19 1.04,-0.68 L 108.84,77.52 c 0,0 -0.08,-0.06 -0.37,-0.06 -2.94,0 -5.9,0 -8.85,0 -0.55,0 -0.61,0.32 -0.73,0.65 -2.25,6.1 -6.36,17.15 -6.36,17.15 L 85.84,78.09 c -0.18,-0.49 -0.43,-0.65 -0.98,-0.64 l -9.19,0.06 10.94,26.56 c 0.27,0.67 0.34,1.23 0,1.91 z"/>
  </g>
</svg>
