<?xml version="1.0" encoding="UTF-8" standalone="no"?>
<svg
    xmlns:svg="http://www.w3.org/2000/svg"
    xmlns="http://www.w3.org/2000/svg"
    xmlns:sodipodi="http://sodipodi.sourceforge.net/DTD/sodipodi-0.dtd"
    xmlns:inkscape="http://www.inkscape.org/namespaces/inkscape"
    width="128"
    height="128"
    viewBox="0 0 1000 1000"
    version="1.1"
    xml:space="preserve"
    sodipodi:docname="yubikey-lock.svg">
  <g
      transform="matrix(1.1920258,0,0,1.1315261,-140.53031,-79.25033)"
      style="fill:#ffffff;fill-opacity:1;opacity:0.6">
    <path
        d="m 207,299.8 c 0,-28.6 -0.1,-56.6 0,-84.6 0.2,-30.4 9.8,-57.7 28.7,-81.4 26.8,-33.6 62,-53.3 104.1,-60.9 39.8,-7.2 77.7,-0.6 113.5,17.4 31.3,15.8 56.2,38.6 72,70.5 8.4,16.9 12.6,34.8 12.6,53.7 v 85.1 c 6.6,0.5 12.9,0.4 19,1.5 35.9,6.8 56.1,28 61.9,63.9 0.1,0.8 0,1.7 0,2.5 V 466 c 0,0.8 -0.1,1.7 -0.1,1.8 -107,51 -163.4,135 -168.6,254.2 h -4.7 c -86.3,0 -172.6,0.7 -259,-0.3 -35.3,-0.4 -61.8,-20.1 -67.5,-58.3 -0.5,-3.6 -0.9,-7.2 -0.9,-10.9 0,-93.5 -0.3,-187 0.1,-280.5 0.1,-35.9 20.3,-62.1 55.3,-69.8 9.3,-2 19.1,-1.5 28.7,-2.2 1.5,-0.1 2.9,-0.1 4.9,-0.2 z m 268.3,-0.1 c -0.8,-26.1 -0.6,-51.6 -2.6,-76.9 -2.2,-27.5 -14.3,-51 -34.8,-69.7 -30.8,-28.1 -74.5,-35 -109.8,-16.2 -38.7,20.6 -56.5,55 -58.9,97.6 -1.1,20.1 -0.2,40.3 -0.2,60.5 v 4.7 z M 405,591.8 v -6.4 c 0,-28.3 0,-56.6 -0.1,-84.9 0,-3.1 0.7,-5.2 3.2,-7.2 12.4,-9.7 19.1,-22.6 21.1,-38.2 5,-37.8 -31.4,-70.9 -68.4,-61.5 -22.8,5.8 -37.6,20.6 -42.4,43.5 -4.8,22.9 2.6,42.3 21.2,56.9 2.5,1.9 3.4,3.9 3.4,7 -0.1,28.3 -0.1,56.6 -0.1,84.9 v 5.8 c 21.1,0.1 41.2,0.1 62.1,0.1 z"
        style="fill-rule:nonzero;fill:#ffffff;fill-opacity:1"
        inkscape:connector-curvature="0" />
  </g>
  <g
      transform="matrix(1.1920258,0,0,1.1315261,-140.53031,-79.25033)"
      style="fill:#ffffff;fill-opacity:1">
    <path
        d="m 723.2,486 c 130.1,1.2 233.6,104.5 233.6,234.1 -0.1,130.4 -104.5,234 -234.2,233.7 C 592.3,953.5 489,849.2 489.2,719.7 489.5,589.5 593.6,486.9 723.2,486 Z m -65.5,381.2 c 21.5,0 41.9,-0.1 62.4,0.1 3.8,0 5.4,-1.3 6.8,-4.7 30.6,-75.6 61.3,-151.1 91.9,-226.6 4.1,-10.1 8.2,-20.3 12.4,-30.7 -1.2,-0.2 -1.8,-0.4 -2.4,-0.4 -19.3,0 -38.7,0.1 -58,-0.1 -3.6,0 -4,2.2 -4.8,4.5 -9.5,27 -18.9,54 -28.4,81 -4.3,12.1 -8.6,24.2 -13.3,37.4 -1.1,-2.9 -1.9,-4.7 -2.5,-6.6 -13.8,-37.3 -27.6,-74.5 -41.3,-111.9 -1.2,-3.4 -2.8,-4.5 -6.4,-4.4 -18.5,0.2 -37,0.1 -55.5,0.1 -1.4,0 -2.9,0.2 -4.7,0.3 0.7,2 1.2,3.5 1.8,5 4.3,11 8.6,22 12.9,33 19,48.5 37.9,97 57,145.4 1.8,4.6 2.2,8.5 0,13.2 -4.1,8.5 -7.5,17.4 -11.2,26.1 -5.5,12.8 -11,25.6 -16.7,39.3 z"
        style="fill:#ffffff;fill-opacity:1;fill-rule:nonzero"
        inkscape:connector-curvature="0" />
  </g>
</svg>
