<?xml version="1.0" encoding="UTF-8" standalone="no"?>
<svg
    xmlns:svg="http://www.w3.org/2000/svg"
    xmlns="http://www.w3.org/2000/svg"
    version="1.1"
    width="86px"
    height="86px"
    viewBox="0 0 86 86"
    style="enable-background:new 0 0 86 86"
    xml:space="preserve">
  <rect
      style="opacity:0;fill:#ffffff;"
      width="86"
      height="86"/>
  <path
      style="fill:#ffffff;fill-opacity:1"
      d="M 43 0 A 43 43 0 0 0 0 43 A 43 43 0 0 0 43 86 A 43 43 0 0 0 86 43 A 43 43 0 0 0 43 0 z M 43.179688 13 L 43.189453 13 L 43.191406 13 C 45.831986 13.026013 48.570229 13.858135 50.900391 15.34375 C 51.192311 15.529885 51.368597 15.780389 51.400391 16.046875 C 51.428716 16.284458 51.343682 16.514038 51.152344 16.712891 C 50.915339 16.959722 50.57868 17.087891 50.232422 17.087891 C 49.96767 17.087891 49.698739 17.013936 49.462891 16.861328 C 47.926984 15.871689 46.217576 15.256334 44.382812 15.033203 C 41.37343 14.667291 38.625574 15.208629 36.216797 16.644531 C 36.167084 16.67459 36.117495 16.706269 36.068359 16.736328 C 35.989743 16.784307 35.908256 16.834036 35.826172 16.880859 C 35.270078 17.200527 34.573189 17.13286 34.167969 16.720703 C 33.96507 16.515492 33.874535 16.262956 33.912109 16.009766 C 33.951996 15.741546 34.130673 15.507061 34.417969 15.351562 L 34.65625 15.220703 C 35.463222 14.781377 36.298005 14.326867 37.183594 13.976562 C 38.894074 13.30081 40.743741 13 43.179688 13 z M 43.046875 16.775391 L 43.056641 16.775391 L 43.058594 16.775391 C 45.073134 16.794467 47.161918 17.401449 48.939453 18.482422 C 49.2175 18.651215 49.386753 18.88831 49.417969 19.148438 C 49.445716 19.383708 49.35837 19.614865 49.169922 19.802734 C 48.951993 20.019507 48.643168 20.132812 48.328125 20.132812 C 48.091698 20.132812 47.849883 20.068361 47.640625 19.939453 C 46.516876 19.248671 45.266662 18.819561 43.923828 18.664062 C 41.715638 18.407982 39.703115 18.786128 37.939453 19.789062 C 37.903035 19.809873 37.866496 19.832127 37.830078 19.853516 C 37.76996 19.888777 37.70754 19.924301 37.644531 19.958984 C 37.139885 20.235297 36.524974 20.174147 36.150391 19.810547 C 35.95096 19.617475 35.858113 19.365175 35.894531 19.117188 C 35.933261 18.851858 36.108313 18.625562 36.388672 18.480469 L 36.568359 18.386719 C 37.177635 18.069942 37.807248 17.742628 38.482422 17.488281 C 39.78826 16.995774 41.196504 16.775391 43.046875 16.775391 z M 42.800781 20.478516 C 43.042015 20.482889 43.286733 20.496192 43.533203 20.519531 C 44.839619 20.643814 46.01784 21.083015 47.097656 21.771484 C 47.432931 21.985945 47.593689 22.277105 47.603516 22.517578 C 47.598377 23.418774 46.744857 23.91524 46.023438 23.542969 C 45.293347 23.166073 44.59078 22.755064 43.742188 22.625 C 42.405134 22.419789 41.136555 22.550118 39.949219 23.189453 C 39.738227 23.303331 39.533976 23.431324 39.318359 23.537109 C 38.785966 23.799549 38.186356 23.648713 37.873047 23.181641 C 37.575924 22.739424 37.679552 22.143028 38.142578 21.832031 C 39.554274 20.884663 41.112143 20.447899 42.800781 20.478516 z M 58.675781 33.46875 L 43.361328 68.984375 L 33.65625 69 L 38.085938 59.15625 L 27.324219 33.519531 L 36.71875 33.503906 L 43.277344 50.068359 L 49.474609 33.484375 L 58.675781 33.46875 z "/>
</svg>
