<?xml version="1.0" encoding="utf-8" standalone="no"?>
<svg version="1.1" viewBox="0 0 48 120" xmlns="http://www.w3.org/2000/svg">
  <rect style="opacity:0;fill:#ffffff" width="48" height="120"/>
  <rect style="fill:#ecc579" width="24" height="24" x="12" y="94"/>
  <circle style="fill:none;stroke:#ecc579;stroke-width:3.2" cx="24" cy="13.7" r="6.4"/>
  <circle style="fill:#ecc579" cx="24" cy="50.6" r="14"/>
  <path style="fill:#000000" d="m 48,80.8 c 0,4.44 -3.58,8 -8,8 h -0.48 v 27.18 c 0,2.22 -1.79,4 -4,4 H 12.47 c -2.21,0 -4,-1.8 -4,-4 V 88.8 H 8 c -4.42,0 -8,-3.56 -8,-8 V 8 C 0,3.56 3.58,0 8,0 h 32 c 4.42,0 8,3.56 8,8 z M 36.71,50.55 c 0,-7.04 -5.7,-12.7 -12.71,-12.7 -7,0 -12.69,5.68 -12.69,12.73 0,7 5.68,12.73 12.69,12.73 7,0 12.71,-5.74 12.71,-12.73 z M 17.89,117.2 V 95.4 h -4.71 v 21.8 z M 30.12,13.7 c 0,-3.39 -2.74,-6.14 -6.12,-6.14 -3.38,0 -6.12,2.75 -6.12,6.14 0,3.39 2.74,6.14 6.12,6.14 3.38,0 6.12,-2.75 6.12,-6.14 z M 23.53,114.3 V 95.4 h -4.71 v 18.9 z m 5.65,0 V 95.4 h -4.71 v 18.9 z m 5.65,2.9 V 95.4 h -4.71 v 21.8 z"/>
  <g style="opacity:0.8;fill:#000000">
    <path d="m 25.81,42.55 c -0.07,0 -0.13,-0.02 -0.19,-0.06 -0.38,-0.25 -0.81,-0.4 -1.27,-0.46 -0.75,-0.09 -1.44,0.04 -2.04,0.4 -0.03,0.02 -0.06,0.04 -0.1,0.06 -0.14,0.08 -0.31,0.06 -0.41,-0.04 -0.05,-0.05 -0.07,-0.11 -0.06,-0.18 0.01,-0.07 0.05,-0.13 0.13,-0.16 0.23,-0.14 0.49,-0.24 0.69,-0.34 0.43,-0.17 0.89,-0.24 1.5,-0.24 h 0 0 c 0.66,0 1.34,0.21 1.93,0.59 0.07,0.05 0.12,0.11 0.13,0.18 0,0.06 -0.01,0.12 -0.06,0.17 C 25.98,42.52 25.9,42.55 25.81,42.55 z"/>
    <path d="m 25.33,43.31 c -0.06,0 -0.12,-0.02 -0.17,-0.05 -0.28,-0.17 -0.59,-0.28 -0.93,-0.32 -0.55,-0.06 -1.05,0.03 -1.5,0.28 -0.02,0 -0.05,0.03 -0.07,0.04 -0.13,0.07 -0.28,0.05 -0.37,-0.037 -0.05,-0.05 -0.07,-0.11 -0.06,-0.17 0,-0.07 0.05,-0.12 0.12,-0.16 l 0.52,-0.25 c 0.33,-0.12 0.68,-0.18 1.14,-0.18 v 0 c 0.5,0 1.03,0.16 1.47,0.43 0.07,0.04 0.11,0.1 0.12,0.17 0,0.06 -0.02,0.12 -0.06,0.16 -0.06,0.06 -0.12,0.09 -0.21,0.09 z"/>
    <path d="m 25.15,43.9 c 0,0.23 -0.21,0.35 -0.39,0.26 -0.18,-0.09 -0.36,-0.2 -0.57,-0.23 -0.33,-0.05 -0.65,-0.02 -0.95,0.14 -0.05,0.03 -0.1,0.06 -0.16,0.09 -0.13,0.07 -0.28,0.03 -0.36,-0.09 -0.07,-0.11 -0.05,-0.26 0.07,-0.34 0.4,-0.27 0.85,-0.37 1.35,-0.33 0.33,0.03 0.62,0.14 0.89,0.31 0.08,0.04 0.12,0.1 0.12,0.18 z"/>
    <path d="m 25.62,46.65 h 2.3 l -3.83,8.87 -2.43,0 1.11,-2.46 -2.69,-6.41 2.35,0 1.64,4.14 z"/>
  </g>
</svg>
